<svg width="26" height="25" viewBox="0 0 26 25" fill="none" xmlns="http://www.w3.org/2000/svg">
<path d="M24.4117 12.9772C24.9315 12.3307 25.2192 11.5385 25.2192 10.7143C25.2192 9.40674 24.4426 8.16903 23.1928 7.47882C22.871 7.30116 22.5047 7.20765 22.1316 7.20798H14.7128L14.8984 3.62881C14.9417 2.76386 14.6169 1.94261 13.9858 1.31647C13.676 1.00785 13.3024 0.762302 12.8878 0.594999C12.4733 0.427696 12.0268 0.342192 11.5757 0.343771C9.96699 0.343771 8.54387 1.36306 8.11693 2.82211L5.4594 11.8793H1.45918C0.911583 11.8793 0.469177 12.2957 0.469177 12.8112V23.4118C0.469177 23.9273 0.911583 24.3438 1.45918 24.3438H20.0619C20.3465 24.3438 20.625 24.2913 20.8817 24.1865C22.3544 23.5953 23.3041 22.2411 23.3041 20.7384C23.3041 20.3714 23.2485 20.0103 23.1371 19.6608C23.6568 19.0143 23.9446 18.2222 23.9446 17.398C23.9446 17.0311 23.8889 16.6699 23.7775 16.3205C24.2972 15.6739 24.585 14.8818 24.585 14.0576C24.5788 13.6907 24.5231 13.3267 24.4117 12.9772ZM2.69668 22.2469V13.9761H5.20261V22.2469H2.69668ZM22.3853 11.9666L21.7078 12.52L22.1378 13.2597C22.2795 13.5033 22.3529 13.7769 22.3513 14.0547C22.3513 14.5352 22.1285 14.9925 21.7449 15.307L21.0674 15.8603L21.4974 16.6C21.6391 16.8437 21.7125 17.1173 21.7109 17.3951C21.7109 17.8756 21.4881 18.3328 21.1045 18.6474L20.427 19.2007L20.857 19.9404C20.9987 20.1841 21.0721 20.4577 21.0705 20.7355C21.0705 21.3878 20.6621 21.9761 20.031 22.244H7.18261V13.8829L10.2609 3.38418C10.3403 3.11508 10.5107 2.87768 10.7463 2.70794C10.9818 2.5382 11.2698 2.44537 11.5665 2.44351C11.8016 2.44351 12.0336 2.50758 12.2192 2.63864C12.5255 2.85414 12.6895 3.18032 12.6709 3.52688L12.3739 9.30481H22.1007C22.6514 9.62225 22.9917 10.1581 22.9917 10.7143C22.9917 11.1949 22.7689 11.6492 22.3853 11.9666Z" fill="#1C2E63"/>
</svg>
