<svg width="44" height="39" viewBox="0 0 44 39" fill="none" xmlns="http://www.w3.org/2000/svg">
<path fill-rule="evenodd" clip-rule="evenodd" d="M35.0976 30.0963C35.8811 29.3128 36.5026 28.3827 36.9267 27.359C37.3507 26.3353 37.5689 25.2381 37.5689 24.1301C37.5689 23.022 37.3507 21.9248 36.9267 20.9011C36.5026 19.8775 35.8811 18.9473 35.0976 18.1638L21.8376 4.90568C21.5764 4.64443 21.3691 4.33429 21.2278 3.99295C21.0864 3.65161 21.0136 3.28577 21.0136 2.91631C21.0136 2.17015 21.31 1.45455 21.8376 0.926931C22.3652 0.399316 23.0808 0.102905 23.827 0.102905C24.1965 0.102905 24.5623 0.175676 24.9036 0.317063C25.245 0.458449 25.5551 0.665683 25.8164 0.926931L39.0726 14.1851C41.6911 16.8259 43.157 20.3964 43.1494 24.1153C43.1418 27.8343 41.6613 31.3988 39.032 34.0288C36.4027 36.6589 32.8386 38.1403 29.1197 38.149C25.4007 38.1577 21.8298 36.6928 19.1882 34.0751L3.27887 18.1657C1.34469 16.2318 0.257988 13.6087 0.257813 10.8735C0.257637 8.13837 1.34401 5.51517 3.27793 3.58099C5.21186 1.64682 7.83492 0.560113 10.5701 0.559938C13.3052 0.559762 15.9284 1.64613 17.8626 3.58006L33.1101 18.8276C34.3409 20.0583 35.0323 21.7276 35.0323 23.4682C35.0323 25.2088 34.3409 26.878 33.1101 28.1088C31.8793 29.3396 30.2101 30.031 28.4695 30.031C26.7289 30.031 25.0596 29.3396 23.8289 28.1088L9.90699 14.1869C9.64587 13.9257 9.43876 13.6156 9.29748 13.2743C9.15621 12.933 9.08354 12.5672 9.08363 12.1978C9.08372 11.8285 9.15656 11.4627 9.29799 11.1215C9.43943 10.7803 9.64668 10.4702 9.90793 10.2091C10.1692 9.94799 10.4793 9.74088 10.8206 9.59961C11.1619 9.45834 11.5277 9.38567 11.897 9.38576C12.2664 9.38584 12.6321 9.45868 12.9734 9.60012C13.3146 9.74155 13.6246 9.94881 13.8857 10.2101L27.8057 24.1319C27.9815 24.308 28.2201 24.407 28.4688 24.4071C28.592 24.4072 28.714 24.3831 28.8278 24.336C28.9417 24.2889 29.0451 24.2199 29.1323 24.1329C29.2195 24.0458 29.2886 23.9425 29.3359 23.8287C29.3831 23.7149 29.4074 23.593 29.4075 23.4698C29.4076 23.3466 29.3834 23.2246 29.3364 23.1108C29.2893 22.9969 29.2203 22.8935 29.1332 22.8063L13.8839 7.55693C13.0036 6.68409 11.8134 6.19548 10.5738 6.19801C9.33414 6.20055 8.14597 6.69403 7.26928 7.57047C6.39259 8.44691 5.89878 9.63494 5.89589 10.8746C5.893 12.1142 6.38128 13.3045 7.25387 14.1851L23.1651 30.0963C23.9486 30.8798 24.8788 31.5013 25.9025 31.9254C26.9261 32.3494 28.0233 32.5676 29.1314 32.5676C30.2394 32.5676 31.3366 32.3494 32.3603 31.9254C33.384 31.5013 34.3141 30.8798 35.0976 30.0963Z" fill="black"/>
</svg>
