<svg width="35" height="35" viewBox="0 0 35 35" fill="none" xmlns="http://www.w3.org/2000/svg">
<path fill-rule="evenodd" clip-rule="evenodd" d="M17.5 33.25C26.1984 33.25 33.25 26.1984 33.25 17.5C33.25 8.80163 26.1984 1.75 17.5 1.75C8.80163 1.75 1.75 8.80163 1.75 17.5C1.75 26.1984 8.80163 33.25 17.5 33.25ZM17.5 35C27.1652 35 35 27.1652 35 17.5C35 7.83475 27.1652 0 17.5 0C7.83475 0 0 7.83475 0 17.5C0 27.1652 7.83475 35 17.5 35Z" fill="url(#paint0_linear_1_10)"/>
<path d="M6.99982 27.6746C6.99982 26.7707 7.67532 26.0068 8.57482 25.9071C15.3254 25.1598 19.7048 25.2272 26.4406 25.9237C26.7769 25.959 27.0957 26.0915 27.358 26.3051C27.6203 26.5186 27.8147 26.8039 27.9175 27.1261C28.0204 27.4483 28.0271 27.7934 27.937 28.1194C27.8469 28.4454 27.6638 28.7381 27.4101 28.9617C19.4607 35.8908 14.9177 35.7955 7.55982 28.9687C7.20107 28.6362 6.99982 28.1637 6.99982 27.6755V27.6746Z" fill="url(#paint1_linear_1_10)"/>
<path fill-rule="evenodd" clip-rule="evenodd" d="M26.3509 26.7949C19.6685 26.1036 15.3521 26.0389 8.67062 26.7782C8.45069 26.8039 8.24793 26.9097 8.10117 27.0755C7.95442 27.2413 7.87398 27.4554 7.87525 27.6769C7.87525 27.9271 7.97937 28.1642 8.15525 28.3287C11.8022 31.7115 14.5655 33.2401 17.2666 33.2497C19.9774 33.2594 22.8894 31.743 26.8356 28.3042C26.961 28.1927 27.0512 28.0471 27.0954 27.8851C27.1396 27.7232 27.1358 27.552 27.0844 27.3922C27.0331 27.2324 26.9364 27.0909 26.8062 26.9851C26.676 26.8792 26.5178 26.8134 26.3509 26.7957V26.7949ZM8.479 25.0387C15.3005 24.2836 19.7437 24.3519 26.532 25.0545C27.038 25.1073 27.5176 25.3065 27.9122 25.6277C28.3067 25.9489 28.5991 26.3782 28.7534 26.863C28.9077 27.3478 28.9173 27.8671 28.7811 28.3573C28.6448 28.8474 28.3686 29.2873 27.9863 29.6229C23.9831 33.1124 20.6494 35.0129 17.2614 34.9997C13.8637 34.9875 10.677 33.0546 6.96612 29.6115C6.70043 29.364 6.48863 29.0644 6.34395 28.7314C6.19927 28.3984 6.12482 28.0391 6.12525 27.676C6.12397 27.0236 6.36343 26.3937 6.79774 25.9069C7.23206 25.4201 7.8307 25.1107 8.479 25.0379V25.0387Z" fill="url(#paint2_linear_1_10)"/>
<path d="M24.5002 14.0002C24.5002 15.8568 23.7627 17.6372 22.4499 18.95C21.1372 20.2627 19.3567 21.0002 17.5002 21.0002C15.6437 21.0002 13.8632 20.2627 12.5504 18.95C11.2377 17.6372 10.5002 15.8568 10.5002 14.0002C10.5002 12.1437 11.2377 10.3633 12.5504 9.0505C13.8632 7.73774 15.6437 7.00024 17.5002 7.00024C19.3567 7.00024 21.1372 7.73774 22.4499 9.0505C23.7627 10.3633 24.5002 12.1437 24.5002 14.0002V14.0002Z" fill="url(#paint3_linear_1_10)"/>
<defs>
<linearGradient id="paint0_linear_1_10" x1="1.88962e-07" y1="17.3643" x2="35" y2="17.3643" gradientUnits="userSpaceOnUse">
<stop stop-color="#1C2E63"/>
<stop offset="1" stop-color="#905794"/>
</linearGradient>
<linearGradient id="paint1_linear_1_10" x1="6.99982" y1="29.7147" x2="28" y2="29.7147" gradientUnits="userSpaceOnUse">
<stop stop-color="#1C2E63"/>
<stop offset="1" stop-color="#905794"/>
</linearGradient>
<linearGradient id="paint2_linear_1_10" x1="6.12524" y1="29.709" x2="28.8766" y2="29.709" gradientUnits="userSpaceOnUse">
<stop stop-color="#1C2E63"/>
<stop offset="1" stop-color="#905794"/>
</linearGradient>
<linearGradient id="paint3_linear_1_10" x1="10.5002" y1="13.946" x2="24.5002" y2="13.946" gradientUnits="userSpaceOnUse">
<stop stop-color="#1C2E63"/>
<stop offset="1" stop-color="#905794"/>
</linearGradient>
</defs>
</svg>
