<svg width="25" height="25" viewBox="0 0 25 25" fill="none" xmlns="http://www.w3.org/2000/svg">
<path d="M1.02665 11.7103C0.506895 12.3568 0.219177 13.149 0.219177 13.9732C0.219177 15.2808 0.995708 16.5185 2.24558 17.2087C2.56735 17.3863 2.9337 17.4798 3.30674 17.4795H10.7256L10.5399 21.0587C10.4966 21.9236 10.8215 22.7449 11.4526 23.371C11.7623 23.6797 12.136 23.9252 12.5505 24.0925C12.965 24.2598 13.4116 24.3453 13.8626 24.3437C15.4714 24.3437 16.8945 23.3244 17.3214 21.8654L19.979 12.8082H23.9792C24.5268 12.8082 24.9692 12.3918 24.9692 11.8763V1.27567C24.9692 0.760204 24.5268 0.34375 23.9792 0.34375H5.37646C5.09183 0.34375 4.8134 0.396172 4.55662 0.501013C3.08399 1.0922 2.13421 2.44641 2.13421 3.94913C2.13421 4.31608 2.1899 4.6772 2.30127 5.02667C1.78152 5.67319 1.4938 6.46533 1.4938 7.2895C1.4938 7.65645 1.54949 8.01757 1.66086 8.36704C1.14111 9.01356 0.853395 9.8057 0.853395 10.6299C0.859583 10.9968 0.91527 11.3608 1.02665 11.7103ZM22.7417 2.44058V10.7114H20.2357V2.44058H22.7417ZM3.05305 12.7209L3.73058 12.1675L3.30055 11.4278C3.15888 11.1842 3.08541 10.9106 3.08708 10.6328C3.08708 10.1523 3.30983 9.69503 3.69346 9.38051L4.37099 8.82718L3.94096 8.08747C3.79928 7.84379 3.72582 7.57019 3.72749 7.29241C3.72749 6.81189 3.95024 6.35467 4.33386 6.04014L5.0114 5.48681L4.58136 4.7471C4.43969 4.50343 4.36623 4.22982 4.3679 3.95205C4.3679 3.2997 4.77627 2.71142 5.4074 2.44349H18.2557V10.8046L15.1775 21.3033C15.0981 21.5724 14.9277 21.8098 14.6921 21.9796C14.4565 22.1493 14.1686 22.2421 13.8719 22.244C13.6368 22.244 13.4047 22.1799 13.2191 22.0489C12.9128 21.8334 12.7489 21.5072 12.7674 21.1606L13.0644 15.3827H3.33768C2.78699 15.0653 2.44668 14.5294 2.44668 13.9732C2.44668 13.4926 2.66943 13.0383 3.05305 12.7209Z" fill="#1C2E63"/>
</svg>
