<svg width="14" height="14" viewBox="0 0 14 14" fill="none" xmlns="http://www.w3.org/2000/svg">
<path d="M0.333333 4.22214H3.11111V13.6666H0.333333V4.22214ZM1.71389 3.11103H1.69833C0.869444 3.11103 0.333333 2.49325 0.333333 1.72159C0.333333 0.933252 0.886111 0.333252 1.73 0.333252C2.575 0.333252 3.09556 0.933252 3.11111 1.72159C3.11111 2.4927 2.575 3.11103 1.71389 3.11103ZM13.6667 13.6666H10.8889V8.61158C10.8889 7.39047 10.2083 6.55714 9.11556 6.55714C8.28167 6.55714 7.83055 7.11936 7.61167 7.6627C7.53167 7.85714 7.55556 8.39492 7.55556 8.66658V13.6666H4.77778V4.22214H7.55556V5.67547C7.95611 5.05547 8.58333 4.22214 10.1878 4.22214C12.1756 4.22214 13.6661 5.47214 13.6661 8.26325L13.6667 13.6666Z" fill="url(#paint0_linear_0_454)"/>
<defs>
<linearGradient id="paint0_linear_0_454" x1="0.333334" y1="6.94823" x2="13.6667" y2="6.94823" gradientUnits="userSpaceOnUse">
<stop stop-color="#1C2E63"/>
<stop offset="1" stop-color="#905794"/>
</linearGradient>
</defs>
</svg>
