<svg width="170" height="45" viewBox="0 0 170 45" fill="none" xmlns="http://www.w3.org/2000/svg">
<path fill-rule="evenodd" clip-rule="evenodd" d="M110.828 34.1748C111.101 32.2086 111.382 30.2892 111.658 28.3956C112.088 25.4493 112.509 22.5657 112.882 19.6658C113.275 16.7378 112.62 16.2571 109.779 17.0874C106.326 18.1362 105.409 19.3162 104.972 22.856C104.578 26.1774 104.141 29.4987 103.573 32.7764C103.486 33.3008 102.83 34.1311 102.437 34.1748C100.636 34.2679 98.8356 34.2508 96.9722 34.2331C96.2127 34.2258 95.4427 34.2185 94.6581 34.2185C95.0075 31.7255 95.3549 29.2448 95.701 26.7723L95.7014 26.7701C96.9572 17.801 98.1978 8.94078 99.4653 0H108.293C107.594 4.50129 106.938 8.87146 106.283 13.2853C106.706 13.0158 107.119 12.7237 107.528 12.4333C108.514 11.7349 109.485 11.0465 110.566 10.7069C112.882 10.0077 115.329 9.48329 117.733 9.52699C120.486 9.57069 122.584 12.1928 122.278 14.946C121.717 19.6949 121.007 24.4189 120.298 29.1369L120.297 29.1415C120.067 30.674 119.837 32.2059 119.612 33.7378C119.612 33.8114 119.557 33.8713 119.493 33.9405C119.443 33.9946 119.388 34.0545 119.35 34.1311C116.553 34.1748 113.799 34.1748 110.828 34.1748ZM142.29 38.4327L142.29 38.4316L142.337 37.9332H150.509C151.383 37.9332 152.257 37.8458 153.087 37.671C157.239 36.7532 158.856 34.874 159.468 30.0231C156.889 32.6015 154.093 34.1748 150.596 34.4807C145.746 34.9177 142.599 32.6889 142.73 27.7943C142.861 23.6427 143.604 19.4473 144.566 15.383C145.396 11.8432 148.193 9.8329 151.689 9.57069C157.501 9.08997 163.314 9.22108 169.039 10.5758C169.199 10.6026 169.36 10.6787 169.561 10.7739C169.688 10.8339 169.831 10.9015 170 10.9692C169.677 13.2072 169.376 15.4453 169.076 17.6811C168.362 22.9981 167.65 28.3022 166.635 33.563C165.237 40.8612 160.823 44.1388 153.393 44.3136C149.548 44.401 145.614 44.401 141.856 42.8278C142.015 41.3981 142.138 40.0767 142.29 38.4372L142.29 38.4327ZM160.648 15.5141C155.316 14.5964 153.219 15.4704 152.388 19.3162C151.957 21.315 151.842 23.4193 151.729 25.5029V25.5034C151.716 25.7429 151.702 25.9822 151.689 26.2211C151.602 27.4884 152.344 28.0566 153.612 28.0129C155.535 27.8818 159.162 25.2596 159.555 23.3805C159.855 21.7744 160.052 20.1683 160.254 18.5306L160.254 18.5303L160.254 18.5301L160.254 18.5299L160.254 18.5286L160.255 18.5213L160.256 18.5167C160.377 17.5297 160.5 16.5311 160.648 15.5141ZM39.2879 27.9254C37.6273 27.9254 36.6658 26.964 36.6221 24.8226C37.0033 24.7909 37.3557 24.7706 37.6897 24.7515C38.2746 24.7179 38.8031 24.6876 39.3316 24.6041C40.2543 24.4811 41.1839 24.3754 42.1156 24.2694L42.1157 24.2694C44.4935 23.999 46.8847 23.7271 49.2082 23.162C52.2237 22.4627 53.5347 20.0154 53.491 16.3882C53.4473 13.1542 52.2674 10.9254 49.2082 10.401C45.4936 9.7455 41.6041 9.43959 37.8021 9.7018C32.2519 10.0514 29.018 13.4165 28.1003 18.9229C28.0395 19.3283 27.9739 19.7313 27.9086 20.1331C27.6923 21.4638 27.4783 22.7807 27.4447 24.1234C27.3136 29.5861 29.3239 33.0386 33.6941 34.0874C38.982 35.3548 44.3573 35.1362 49.6015 33.4319C50.126 33.2571 50.8252 32.6452 50.8252 32.2082C50.8252 31.2364 50.713 30.2458 50.5987 29.2365C50.5383 28.7027 50.4772 28.1638 50.4319 27.6195C50.0103 27.6387 49.656 27.6663 49.3357 27.6912C48.9255 27.7231 48.5712 27.7506 48.2031 27.7506C47.6088 27.7681 47.0144 27.7873 46.4201 27.8066C44.0427 27.8835 41.6653 27.9604 39.2879 27.9254ZM39.1063 20.0847L39.1061 20.0847C38.5395 20.1427 37.9723 20.2008 37.4087 20.2776C37.4087 16.2571 40.3805 14.0283 43.7892 15.383C44.3136 15.6015 45.0566 16.6941 44.9255 17.0874C44.6195 17.9614 43.9203 19.1851 43.1337 19.4036C41.8361 19.8052 40.4731 19.9448 39.1063 20.0847ZM83.689 27.7943C83.746 28.2931 83.8123 28.792 83.8788 29.2923V29.2923C84.0162 30.3262 84.1545 31.3665 84.2134 32.4267C84.2134 32.7763 83.6016 33.3882 83.1645 33.5193C78.3573 35.0488 73.419 35.3111 68.5681 34.0437C64.8972 33.0823 62.7121 30.329 62.7558 26.527C62.7995 23.3805 63.2802 20.1902 63.9794 17.0874C64.9846 12.7609 67.9563 10.2262 72.3702 9.6144C77.1774 8.95887 81.8972 9.13368 86.4422 10.838C86.4782 10.9641 86.5216 11.0604 86.5572 11.1394C86.6079 11.252 86.6427 11.3291 86.617 11.4062C86.1816 13.8442 85.9631 15.0678 85.2324 15.6765C84.496 16.2899 83.2396 16.279 80.7172 16.2571H78.5321C73.4627 16.2571 70.0103 21.3702 72.1517 26.0463C72.545 26.8766 74.0309 27.6195 75.0797 27.6632C77.0886 27.8865 79.1441 27.8537 81.28 27.8197C82.0714 27.8071 82.8738 27.7943 83.689 27.7943ZM3.17491 15.5047C3.46482 15.5221 3.7609 15.54 4.06427 15.5578C3.954 16.3076 3.84497 17.0488 3.73697 17.7829C3.20291 21.4133 2.694 24.8728 2.18509 28.3625C1.79177 31.3342 3.71465 34.3496 6.64267 34.5244C9.11551 34.7146 11.6546 34.4743 14.1734 34.2359C14.548 34.2005 14.9222 34.1651 15.2956 34.1311C15.7326 34.0874 16.4319 33.3445 16.4319 32.9075C16.4319 31.7992 16.3234 30.6909 16.2135 29.5674C16.1674 29.096 16.121 28.6219 16.0823 28.144C15.6629 28.115 15.258 28.11 14.8674 28.1052C14.0774 28.0955 13.3461 28.0864 12.6735 27.8817C12.1054 27.7506 11.3188 26.8766 11.3625 26.3959C11.6421 23.4602 12.0614 20.5525 12.4864 17.6056C12.5928 16.8676 12.6996 16.1271 12.8046 15.383C13.3589 15.383 13.8904 15.3906 14.4047 15.398C15.6339 15.4156 16.7648 15.4318 17.874 15.3393C18.3548 15.2956 19.0977 14.8149 19.1851 14.3779C19.3948 13.4193 19.5018 12.4401 19.6188 11.37C19.6724 10.879 19.7282 10.3689 19.7969 9.8329H13.635C13.9409 7.56041 14.2031 5.50643 14.4653 3.40874H5.94345C5.59383 5.59383 5.24422 7.64781 4.8946 9.6581C2.39891 10.2202 1.18721 10.4931 0.592946 11.2505C0.0321344 11.9652 0.0212181 13.1114 0 15.3393C1.0086 15.3741 2.04487 15.4366 3.17491 15.5047Z" fill="url(#paint0_linear_1_27)"/>
<defs>
<linearGradient id="paint0_linear_1_27" x1="9.17816e-07" y1="22" x2="170" y2="22" gradientUnits="userSpaceOnUse">
<stop stop-color="#1C2E63"/>
<stop offset="1" stop-color="#905794"/>
</linearGradient>
</defs>
</svg>
