<svg width="23" height="23" viewBox="0 0 23 23" fill="none" xmlns="http://www.w3.org/2000/svg">
<path d="M2.81706 17.4167L2.91587 17.1781L2.77852 16.9594C1.78291 15.3742 1.20001 13.5059 1.20001 11.4984C1.20001 5.81028 5.81177 1.19971 11.5 1.19971C17.1875 1.19971 21.8 5.81031 21.8 11.4984C21.8 17.1866 17.1873 21.8002 11.5 21.8002C9.49281 21.8002 7.62627 21.2159 6.04102 20.2209L5.82233 20.0836L5.58379 20.1824L1.75407 21.7694C1.75389 21.7695 1.75371 21.7696 1.75352 21.7697C1.65798 21.8089 1.54977 21.8119 1.44724 21.7698C1.24231 21.6838 1.14674 21.4499 1.23054 21.2471C1.23056 21.2471 1.23058 21.247 1.2306 21.247L2.81706 17.4167ZM6.46532 19.544L6.46542 19.5441C7.98199 20.4949 9.72328 21.0002 11.5 21.0002C16.7386 21.0002 20.9999 16.7367 20.9999 11.4984C20.9999 6.26009 16.7384 1.99953 11.5 1.99953C6.2616 1.99953 2.0001 6.26037 2.0001 11.4984C2.0001 13.2752 2.50302 15.0165 3.45648 16.5334L3.81298 17.102L2.80089 19.5461L2.33907 20.6614L3.45424 20.1993L5.89664 19.1873L6.46532 19.544Z" fill="#4EAA97" stroke="url(#paint0_linear_10_42)"/>
<path d="M14.965 14.9626L14.9641 14.9634C14.4585 15.4702 13.6346 15.4713 13.1252 14.963L13.125 14.9628L13.125 14.9627L13.1244 14.9621L13.1216 14.9593L13.1107 14.9484L13.0681 14.9059L12.9066 14.7443L12.33 14.1676L10.5805 12.4178L8.88923 10.726H8.88984L8.03629 9.87242C7.52847 9.3646 7.52847 8.54206 8.03629 8.03424L8.03633 8.0342L8.8555 7.21486L10.234 9.51209L9.5556 10.1905L9.20213 10.544L9.55553 10.8975L12.1 13.4431L12.4536 13.7968L12.8072 13.4431L13.4856 12.7647L15.7851 14.1445L14.965 14.9626ZM7.45518 9.94832C6.9903 9.24922 7.06615 8.29727 7.68274 7.68069L8.59031 6.77293L7.45518 9.94832Z" fill="#1C2E63" stroke="url(#paint1_linear_10_42)"/>
<defs>
<linearGradient id="paint0_linear_10_42" x1="0.700012" y1="11.4162" x2="22.3" y2="11.4162" gradientUnits="userSpaceOnUse">
<stop stop-color="#1C2E63"/>
<stop offset="1" stop-color="#905794"/>
</linearGradient>
<linearGradient id="paint1_linear_10_42" x1="7.15543" y1="11.0896" x2="16.5922" y2="11.0896" gradientUnits="userSpaceOnUse">
<stop stop-color="#1C2E63"/>
<stop offset="1" stop-color="#905794"/>
</linearGradient>
</defs>
</svg>
